<mxfile host="app.diagrams.net" agent="Mozilla/5.0 (Windows NT 10.0; Win64; x64) AppleWebKit/537.36 (KHTML, like Gecko) Chrome/132.0.0.0 Safari/537.36" version="26.0.11">
  <diagram name="Page-1" id="zduZHSICRt8qEhqZe1Da">
    <mxGraphModel dx="1854" dy="921" grid="1" gridSize="10" guides="1" tooltips="1" connect="1" arrows="1" fold="1" page="1" pageScale="1" pageWidth="827" pageHeight="1169" math="0" shadow="0">
      <root>
        <mxCell id="0" />
        <mxCell id="1" parent="0" />
        <mxCell id="P32Bp6GHsZ7q4Y05PglZ-33" value="" style="rounded=0;whiteSpace=wrap;html=1;dashed=1;" vertex="1" parent="1">
          <mxGeometry x="70" y="320" width="930" height="640" as="geometry" />
        </mxCell>
        <mxCell id="P32Bp6GHsZ7q4Y05PglZ-5" style="edgeStyle=orthogonalEdgeStyle;rounded=0;orthogonalLoop=1;jettySize=auto;html=1;exitX=0.5;exitY=0;exitDx=0;exitDy=0;entryX=0.5;entryY=1;entryDx=0;entryDy=0;" edge="1" parent="1" source="P32Bp6GHsZ7q4Y05PglZ-1" target="P32Bp6GHsZ7q4Y05PglZ-4">
          <mxGeometry relative="1" as="geometry" />
        </mxCell>
        <mxCell id="P32Bp6GHsZ7q4Y05PglZ-6" value="Enable Signal" style="edgeLabel;html=1;align=left;verticalAlign=middle;resizable=0;points=[];" vertex="1" connectable="0" parent="P32Bp6GHsZ7q4Y05PglZ-5">
          <mxGeometry x="0.2034" y="-2" relative="1" as="geometry">
            <mxPoint x="8" y="4" as="offset" />
          </mxGeometry>
        </mxCell>
        <mxCell id="P32Bp6GHsZ7q4Y05PglZ-1" value="ESP32" style="rounded=0;whiteSpace=wrap;html=1;" vertex="1" parent="1">
          <mxGeometry x="570" y="800" width="120" height="120" as="geometry" />
        </mxCell>
        <mxCell id="P32Bp6GHsZ7q4Y05PglZ-9" style="edgeStyle=orthogonalEdgeStyle;rounded=0;orthogonalLoop=1;jettySize=auto;html=1;exitX=1;exitY=0.5;exitDx=0;exitDy=0;entryX=0;entryY=0.5;entryDx=0;entryDy=0;" edge="1" parent="1" source="P32Bp6GHsZ7q4Y05PglZ-2" target="P32Bp6GHsZ7q4Y05PglZ-4">
          <mxGeometry relative="1" as="geometry">
            <Array as="points">
              <mxPoint x="300" y="580" />
              <mxPoint x="300" y="424" />
            </Array>
          </mxGeometry>
        </mxCell>
        <mxCell id="P32Bp6GHsZ7q4Y05PglZ-10" value="5V" style="edgeLabel;html=1;align=center;verticalAlign=middle;resizable=0;points=[];" vertex="1" connectable="0" parent="P32Bp6GHsZ7q4Y05PglZ-9">
          <mxGeometry x="0.0109" y="2" relative="1" as="geometry">
            <mxPoint x="-50" y="148" as="offset" />
          </mxGeometry>
        </mxCell>
        <mxCell id="P32Bp6GHsZ7q4Y05PglZ-15" style="edgeStyle=orthogonalEdgeStyle;rounded=0;orthogonalLoop=1;jettySize=auto;html=1;exitX=0.5;exitY=1;exitDx=0;exitDy=0;entryX=0;entryY=0.5;entryDx=0;entryDy=0;endArrow=none;startFill=0;" edge="1" parent="1" source="P32Bp6GHsZ7q4Y05PglZ-2" target="P32Bp6GHsZ7q4Y05PglZ-1">
          <mxGeometry relative="1" as="geometry" />
        </mxCell>
        <mxCell id="P32Bp6GHsZ7q4Y05PglZ-16" value="USB_Data" style="edgeLabel;html=1;align=center;verticalAlign=middle;resizable=0;points=[];" vertex="1" connectable="0" parent="P32Bp6GHsZ7q4Y05PglZ-15">
          <mxGeometry x="0.2733" y="3" relative="1" as="geometry">
            <mxPoint x="-12" y="-7" as="offset" />
          </mxGeometry>
        </mxCell>
        <mxCell id="P32Bp6GHsZ7q4Y05PglZ-17" style="edgeStyle=orthogonalEdgeStyle;rounded=0;orthogonalLoop=1;jettySize=auto;html=1;exitX=1;exitY=0.5;exitDx=0;exitDy=0;entryX=0;entryY=0.5;entryDx=0;entryDy=0;" edge="1" parent="1" source="P32Bp6GHsZ7q4Y05PglZ-2" target="P32Bp6GHsZ7q4Y05PglZ-12">
          <mxGeometry relative="1" as="geometry" />
        </mxCell>
        <mxCell id="P32Bp6GHsZ7q4Y05PglZ-25" style="edgeStyle=orthogonalEdgeStyle;rounded=0;orthogonalLoop=1;jettySize=auto;html=1;exitX=0;exitY=0.5;exitDx=0;exitDy=0;endArrow=none;startFill=0;" edge="1" parent="1" source="P32Bp6GHsZ7q4Y05PglZ-2">
          <mxGeometry relative="1" as="geometry">
            <mxPoint x="38" y="580" as="targetPoint" />
          </mxGeometry>
        </mxCell>
        <mxCell id="P32Bp6GHsZ7q4Y05PglZ-26" value="To upstream USB" style="edgeLabel;html=1;align=center;verticalAlign=middle;resizable=0;points=[];" vertex="1" connectable="0" parent="P32Bp6GHsZ7q4Y05PglZ-25">
          <mxGeometry x="0.7629" y="3" relative="1" as="geometry">
            <mxPoint x="-72" y="-3" as="offset" />
          </mxGeometry>
        </mxCell>
        <mxCell id="P32Bp6GHsZ7q4Y05PglZ-2" value="USB-C Connector" style="rounded=0;whiteSpace=wrap;html=1;" vertex="1" parent="1">
          <mxGeometry x="100" y="520" width="120" height="120" as="geometry" />
        </mxCell>
        <mxCell id="P32Bp6GHsZ7q4Y05PglZ-21" style="edgeStyle=orthogonalEdgeStyle;rounded=0;orthogonalLoop=1;jettySize=auto;html=1;exitX=1;exitY=0.5;exitDx=0;exitDy=0;entryX=0;entryY=0.5;entryDx=0;entryDy=0;" edge="1" parent="1" source="P32Bp6GHsZ7q4Y05PglZ-4" target="P32Bp6GHsZ7q4Y05PglZ-20">
          <mxGeometry relative="1" as="geometry" />
        </mxCell>
        <mxCell id="P32Bp6GHsZ7q4Y05PglZ-39" value="12V" style="edgeLabel;html=1;align=center;verticalAlign=middle;resizable=0;points=[];" vertex="1" connectable="0" parent="P32Bp6GHsZ7q4Y05PglZ-21">
          <mxGeometry x="-0.2286" y="-1" relative="1" as="geometry">
            <mxPoint x="10" y="-15" as="offset" />
          </mxGeometry>
        </mxCell>
        <mxCell id="P32Bp6GHsZ7q4Y05PglZ-4" value="12V Boost&lt;div&gt;&amp;nbsp;Converter&lt;span style=&quot;color: rgba(0, 0, 0, 0); font-family: monospace; font-size: 0px; text-align: start; text-wrap-mode: nowrap;&quot;&gt;%3CmxGraphModel%3E%3Croot%3E%3CmxCell%20id%3D%220%22%2F%3E%3CmxCell%20id%3D%221%22%20parent%3D%220%22%2F%3E%3CmxCell%20id%3D%222%22%20value%3D%225V%22%20style%3D%22edgeLabel%3Bhtml%3D1%3Balign%3Dcenter%3BverticalAlign%3Dmiddle%3Bresizable%3D0%3Bpoints%3D%5B%5D%3B%22%20vertex%3D%221%22%20connectable%3D%220%22%20parent%3D%221%22%3E%3CmxGeometry%20x%3D%22340%22%20y%3D%22409.62068965517255%22%20as%3D%22geometry%22%2F%3E%3C%2FmxCell%3E%3C%2Froot%3E%3C%2FmxGraphModel%3EbVB V&amp;nbsp;&lt;/span&gt;&lt;/div&gt;" style="rounded=0;whiteSpace=wrap;html=1;" vertex="1" parent="1">
          <mxGeometry x="570" y="364" width="120" height="120" as="geometry" />
        </mxCell>
        <mxCell id="P32Bp6GHsZ7q4Y05PglZ-18" style="edgeStyle=orthogonalEdgeStyle;rounded=0;orthogonalLoop=1;jettySize=auto;html=1;exitX=1;exitY=0.5;exitDx=0;exitDy=0;entryX=0.25;entryY=0;entryDx=0;entryDy=0;" edge="1" parent="1" source="P32Bp6GHsZ7q4Y05PglZ-12" target="P32Bp6GHsZ7q4Y05PglZ-1">
          <mxGeometry relative="1" as="geometry" />
        </mxCell>
        <mxCell id="P32Bp6GHsZ7q4Y05PglZ-19" value="3.3V" style="edgeLabel;html=1;align=center;verticalAlign=middle;resizable=0;points=[];" vertex="1" connectable="0" parent="P32Bp6GHsZ7q4Y05PglZ-18">
          <mxGeometry x="-0.5098" y="1" relative="1" as="geometry">
            <mxPoint y="-9" as="offset" />
          </mxGeometry>
        </mxCell>
        <mxCell id="P32Bp6GHsZ7q4Y05PglZ-32" style="edgeStyle=orthogonalEdgeStyle;rounded=0;orthogonalLoop=1;jettySize=auto;html=1;exitX=1;exitY=0.5;exitDx=0;exitDy=0;entryX=1;entryY=0.25;entryDx=0;entryDy=0;" edge="1" parent="1" source="P32Bp6GHsZ7q4Y05PglZ-12" target="P32Bp6GHsZ7q4Y05PglZ-29">
          <mxGeometry relative="1" as="geometry">
            <Array as="points">
              <mxPoint x="600" y="580" />
              <mxPoint x="600" y="710" />
            </Array>
          </mxGeometry>
        </mxCell>
        <mxCell id="P32Bp6GHsZ7q4Y05PglZ-12" value="3.3V Linear&lt;div&gt;Regulator&lt;/div&gt;" style="rounded=0;whiteSpace=wrap;html=1;" vertex="1" parent="1">
          <mxGeometry x="360" y="520" width="120" height="120" as="geometry" />
        </mxCell>
        <mxCell id="P32Bp6GHsZ7q4Y05PglZ-23" style="edgeStyle=orthogonalEdgeStyle;rounded=0;orthogonalLoop=1;jettySize=auto;html=1;exitX=1;exitY=0.5;exitDx=0;exitDy=0;endArrow=none;startFill=0;" edge="1" parent="1" source="P32Bp6GHsZ7q4Y05PglZ-20">
          <mxGeometry relative="1" as="geometry">
            <mxPoint x="1060" y="424" as="targetPoint" />
          </mxGeometry>
        </mxCell>
        <mxCell id="P32Bp6GHsZ7q4Y05PglZ-24" value="To Fan" style="edgeLabel;html=1;align=center;verticalAlign=middle;resizable=0;points=[];" vertex="1" connectable="0" parent="P32Bp6GHsZ7q4Y05PglZ-23">
          <mxGeometry x="0.8667" y="-4" relative="1" as="geometry">
            <mxPoint x="28" y="-4" as="offset" />
          </mxGeometry>
        </mxCell>
        <mxCell id="P32Bp6GHsZ7q4Y05PglZ-27" style="edgeStyle=orthogonalEdgeStyle;rounded=0;orthogonalLoop=1;jettySize=auto;html=1;exitX=0.5;exitY=1;exitDx=0;exitDy=0;entryX=1;entryY=0.5;entryDx=0;entryDy=0;endArrow=none;startFill=0;" edge="1" parent="1" source="P32Bp6GHsZ7q4Y05PglZ-20" target="P32Bp6GHsZ7q4Y05PglZ-1">
          <mxGeometry relative="1" as="geometry" />
        </mxCell>
        <mxCell id="P32Bp6GHsZ7q4Y05PglZ-28" value="Fan PWM &amp;amp; Speed Feedback" style="edgeLabel;html=1;align=center;verticalAlign=middle;resizable=0;points=[];" vertex="1" connectable="0" parent="P32Bp6GHsZ7q4Y05PglZ-27">
          <mxGeometry x="0.8205" y="-3" relative="1" as="geometry">
            <mxPoint x="49" y="-11" as="offset" />
          </mxGeometry>
        </mxCell>
        <mxCell id="P32Bp6GHsZ7q4Y05PglZ-20" value="Fan Connector" style="rounded=0;whiteSpace=wrap;html=1;" vertex="1" parent="1">
          <mxGeometry x="820" y="364" width="120" height="120" as="geometry" />
        </mxCell>
        <mxCell id="P32Bp6GHsZ7q4Y05PglZ-30" style="edgeStyle=orthogonalEdgeStyle;rounded=0;orthogonalLoop=1;jettySize=auto;html=1;exitX=1;exitY=0.75;exitDx=0;exitDy=0;entryX=0;entryY=0.25;entryDx=0;entryDy=0;endArrow=none;startFill=0;" edge="1" parent="1" source="P32Bp6GHsZ7q4Y05PglZ-29" target="P32Bp6GHsZ7q4Y05PglZ-1">
          <mxGeometry relative="1" as="geometry" />
        </mxCell>
        <mxCell id="P32Bp6GHsZ7q4Y05PglZ-31" value="I2C" style="edgeLabel;html=1;align=center;verticalAlign=middle;resizable=0;points=[];" vertex="1" connectable="0" parent="P32Bp6GHsZ7q4Y05PglZ-30">
          <mxGeometry x="-0.5538" y="3" relative="1" as="geometry">
            <mxPoint y="-7" as="offset" />
          </mxGeometry>
        </mxCell>
        <mxCell id="P32Bp6GHsZ7q4Y05PglZ-29" value="Humidity Sensor" style="rounded=0;whiteSpace=wrap;html=1;" vertex="1" parent="1">
          <mxGeometry x="360" y="680" width="120" height="120" as="geometry" />
        </mxCell>
        <mxCell id="P32Bp6GHsZ7q4Y05PglZ-34" value="Filament Humidity Controller PCB" style="text;html=1;align=center;verticalAlign=middle;whiteSpace=wrap;rounded=0;" vertex="1" parent="1">
          <mxGeometry x="80" y="330" width="190" height="30" as="geometry" />
        </mxCell>
        <mxCell id="P32Bp6GHsZ7q4Y05PglZ-36" value="" style="sketch=0;aspect=fixed;pointerEvents=1;shadow=0;dashed=0;html=1;strokeColor=none;labelPosition=center;verticalLabelPosition=bottom;verticalAlign=top;align=center;fillColor=#000000;shape=mxgraph.mscae.enterprise.wireless_connection;rotation=90;whiteSpace=wrap;" vertex="1" parent="1">
          <mxGeometry x="570" y="920" width="117.6" height="140" as="geometry" />
        </mxCell>
        <mxCell id="P32Bp6GHsZ7q4Y05PglZ-37" value="ESPHome Server" style="rounded=0;whiteSpace=wrap;html=1;" vertex="1" parent="1">
          <mxGeometry x="568.8" y="1060" width="120" height="120" as="geometry" />
        </mxCell>
        <mxCell id="P32Bp6GHsZ7q4Y05PglZ-40" value="2.4GHz WiFi (802.11b/g/n)" style="text;html=1;align=center;verticalAlign=middle;resizable=0;points=[];autosize=1;strokeColor=none;fillColor=none;" vertex="1" parent="1">
          <mxGeometry x="687.6" y="975" width="170" height="30" as="geometry" />
        </mxCell>
      </root>
    </mxGraphModel>
  </diagram>
</mxfile>
